<svg width="50" height="50" viewBox="0 0 50 50" fill="none" xmlns="http://www.w3.org/2000/svg">
<rect width="50" height="50" rx="10" fill="#E1E8FF"/>
<path d="M34.7875 14.2C34.6375 13.75 34.15 13.525 33.7001 13.7125L30.9625 14.725C30.625 14.8375 30.4 15.175 30.4 15.5125V19.6375H17.725C16.3375 19.6375 15.175 20.7625 15.175 22.1875V26.275C15.175 27.5875 16.225 28.7125 17.5375 28.825L30.4 29.8V30.0625C30.4 30.7 29.875 31.225 29.2375 31.225H18.6625C17.2375 31.225 16.075 32.3875 16.075 33.8125C16.075 35.2375 17.2375 36.4 18.6625 36.4C20.0875 36.4 21.25 35.2375 21.25 33.8125C21.25 33.5125 21.175 33.175 21.1 32.9125H24.85C24.7375 33.2125 24.7 33.5125 24.7 33.8125C24.7 35.2375 25.8625 36.4 27.2875 36.4C28.7125 36.4 29.875 35.2375 29.875 33.8125C29.875 33.475 29.8 33.175 29.6875 32.875C31.0375 32.65 32.0875 31.4875 32.0875 30.0625V16.15L34.3 15.3625C34.7125 15.1375 34.9375 14.65 34.7875 14.2ZM25.6 21.2875V27.7L21.625 27.4V21.2875H25.6ZM16.8625 26.275V22.15C16.8625 21.6625 17.2375 21.2875 17.725 21.2875H19.9375V27.2875L17.6875 27.1375C17.2 27.1 16.8625 26.6875 16.8625 26.275ZM30.4 28.075L27.2875 27.85V21.2875H30.4V28.075ZM19.5625 33.7375C19.5625 34.225 19.15 34.6375 18.6625 34.6375C18.175 34.6375 17.7625 34.225 17.7625 33.7375C17.7625 33.25 18.175 32.8375 18.6625 32.8375C19.15 32.8375 19.5625 33.25 19.5625 33.7375ZM27.25 34.675C26.7625 34.675 26.35 34.2625 26.35 33.775C26.35 33.2875 26.7625 32.875 27.25 32.875C27.7375 32.875 28.15 33.2875 28.15 33.775C28.15 34.2625 27.775 34.675 27.25 34.675Z" fill="#111928"/>
</svg>
