<svg width="61" height="60" viewBox="0 0 61 60" fill="none" xmlns="http://www.w3.org/2000/svg">
<circle cx="30.6667" cy="30" r="30" fill="#DF76FA"/>
<path d="M41.1667 21.825L39.1792 19.8375C38.0542 18.7125 36.2542 18.7125 35.1292 19.8375L23.8042 31.1625C23.4292 31.5375 23.4292 32.175 23.8042 32.5875L23.9167 32.7L22.0792 34.5C21.7417 34.8375 21.5542 35.2875 21.5167 35.7L19.6792 37.5375C19.4167 37.8 19.3042 38.175 19.3417 38.5125C19.3792 38.85 19.6042 39.1875 19.9417 39.3375L22.7167 40.8375C22.9042 40.95 23.0917 40.9875 23.2792 40.9875C23.5792 40.9875 23.9167 40.875 24.1417 40.6125L25.3042 39.45C25.7167 39.4125 26.1667 39.225 26.4667 38.8875L28.3042 37.05L28.3792 37.125C28.5667 37.3125 28.8292 37.425 29.0917 37.425C29.3542 37.425 29.6167 37.3125 29.8042 37.125L41.1667 25.8375C41.6917 25.3125 41.9917 24.6 41.9917 23.8125C41.9917 23.0625 41.7292 22.35 41.1667 21.825ZM23.1667 39.225L21.3667 38.25L22.1917 37.425L23.5792 38.8125L23.1667 39.225ZM27.1042 35.925L25.2667 37.7625C25.1542 37.875 24.9667 37.875 24.8542 37.7625L23.2417 36.15C23.1667 36.0375 23.1667 35.9625 23.1667 35.925C23.1667 35.8875 23.1667 35.775 23.2417 35.7L25.0792 33.8625L26.0917 34.875L27.1042 35.925ZM39.9667 24.6375L29.0917 35.5125L27.2917 33.7125L25.4542 31.875L36.3292 21C36.7792 20.55 37.5292 20.55 37.9792 21L39.9667 22.9875C40.4542 23.475 40.4542 24.1875 39.9667 24.6375Z" fill="white"/>
</svg>
