<svg width="61" height="60" viewBox="0 0 61 60" fill="none" xmlns="http://www.w3.org/2000/svg">
<circle cx="30.6667" cy="30" r="30" fill="#F59E0B"/>
<g clip-path="url(#clip0_698_356)">
<path d="M38.7667 24.75C36.5542 22.575 33.6292 21.4125 30.4792 21.4875C24.3292 21.5625 19.3417 26.55 19.3417 32.5875V36.9C19.3417 37.7625 20.0542 38.5125 20.9542 38.5125H23.2792C24.1417 38.5125 24.8917 37.8 24.8917 36.9V33.6C24.8917 32.7375 24.1792 31.9875 23.2792 31.9875H21.0292C21.3292 27.1125 25.4542 23.175 30.4792 23.1C33.1417 23.025 35.6917 24.0375 37.5667 25.875C39.2542 27.525 40.2292 29.6625 40.3042 31.95H38.0917C37.2292 31.95 36.4792 32.6625 36.4792 33.5625V36.8625C36.4792 37.725 37.1917 38.475 38.0917 38.475H40.4167C41.2792 38.475 42.0292 37.7625 42.0292 36.8625V32.3625C42.0292 29.55 40.8667 26.8125 38.7667 24.75ZM23.1292 36.825H21.0292V33.7125H23.1667V36.825H23.1292ZM40.3417 36.825H38.2042V33.7125H40.3417V36.825Z" fill="white"/>
</g>
<defs>
<clipPath id="clip0_698_356">
<rect width="24" height="24" fill="white" transform="translate(18.6667 18)"/>
</clipPath>
</defs>
</svg>
