<svg width="60" height="60" viewBox="0 0 60 60" fill="none" xmlns="http://www.w3.org/2000/svg">
<circle cx="30" cy="30" r="30" fill="#A78BFA"/>
<path d="M37.3875 18.675H35.55C33.975 18.675 32.7 19.95 32.7 21.525V36C32.7 36.15 32.7375 36.3 32.8125 36.45L35.4375 40.8C35.6625 41.175 36.0375 41.4 36.4875 41.4C36.9375 41.4 37.3125 41.175 37.5375 40.8L40.1625 36.45C40.2375 36.3 40.275 36.15 40.275 36V21.525C40.2375 19.95 38.9625 18.675 37.3875 18.675ZM35.55 20.325H37.3875C38.025 20.325 38.55 20.85 38.55 21.4875V22.5H34.3875V21.525C34.3875 20.8875 34.9125 20.325 35.55 20.325ZM36.4875 39.1875L34.3875 35.7375V24.225H38.55V35.7375L36.4875 39.1875Z" fill="white"/>
<path d="M26.85 18.7125H22.0875C20.8125 18.7125 19.7625 19.7625 19.7625 21.0375V38.925C19.7625 40.2 20.8125 41.25 22.0875 41.25H26.85C28.125 41.25 29.175 40.2 29.175 38.925V21.0375C29.2125 19.7625 28.1625 18.7125 26.85 18.7125ZM27.525 38.9625C27.525 39.3375 27.225 39.6375 26.85 39.6375H22.0875C21.7125 39.6375 21.4125 39.3375 21.4125 38.9625V37.65H24.0375C24.4875 37.65 24.8625 37.275 24.8625 36.825C24.8625 36.375 24.4875 36 24.0375 36H21.4125V34.125H22.1625C22.6125 34.125 22.9875 33.75 22.9875 33.3C22.9875 32.85 22.6125 32.475 22.1625 32.475H21.4125V30.6375H24.0375C24.4875 30.6375 24.8625 30.2625 24.8625 29.8125C24.8625 29.3625 24.4875 28.9875 24.0375 28.9875H21.4125V27.15H22.1625C22.6125 27.15 22.9875 26.775 22.9875 26.325C22.9875 25.875 22.6125 25.5 22.1625 25.5H21.4125V23.6625H24.0375C24.4875 23.6625 24.8625 23.2875 24.8625 22.8375C24.8625 22.3875 24.4875 22.0125 24.0375 22.0125H21.4125V21.0375C21.4125 20.6625 21.7125 20.3625 22.0875 20.3625H26.85C27.225 20.3625 27.525 20.6625 27.525 21.0375V38.9625V38.9625Z" fill="white"/>
</svg>
