<svg width="61" height="60" viewBox="0 0 61 60" fill="none" xmlns="http://www.w3.org/2000/svg">
<circle cx="30.3333" cy="30" r="30" fill="#FCD34D"/>
<path d="M32.6226 41.1508C32.3641 41.1508 32.1426 41.04 31.9949 40.8554C31.7364 40.56 31.7364 40.1538 31.958 39.8585C31.958 39.8215 33.2872 37.9015 31.7364 35.9446L31.6995 35.9077C31.6257 35.8338 31.5887 35.76 31.5149 35.6492C31.1457 35.2061 30.8133 34.7261 30.7395 33.9138C29.2257 35.0954 27.8226 37.2 28.9672 40.0061C29.078 40.3015 29.0041 40.6708 28.7826 40.9292C28.5241 41.1508 28.1918 41.2246 27.8595 41.0769C25.9026 40.2277 23.5764 38.3077 22.838 35.4646C22.1364 32.8431 22.9487 30 25.1641 27.0092C26.1241 25.7538 27.601 23.1692 27.0841 20.0677C27.0472 19.7354 27.158 19.44 27.4164 19.2554C27.6749 19.0708 28.0072 19.0338 28.3026 19.2185C29.8534 20.0677 33.398 22.6892 32.6595 28.4123C32.6595 28.4861 32.6595 28.56 32.6595 28.56C32.6964 28.56 32.918 28.5969 33.1764 28.4492C33.398 28.3385 33.878 27.9323 33.841 26.9723C33.8041 26.6031 34.0257 26.2708 34.358 26.16C34.6903 26.0123 35.0595 26.1231 35.318 26.4185C37.1272 28.6338 38.8257 32.2154 38.0872 35.5015C37.5334 37.9015 35.8349 39.7477 33.0287 41.04C32.8441 41.1138 32.7334 41.1508 32.6226 41.1508ZM28.8195 21.6185C28.7457 24.4985 27.3795 26.7877 26.4564 28.0061C24.5364 30.5538 23.8349 32.9169 24.3887 35.0215C24.7949 36.5354 25.7549 37.7169 26.8257 38.5292C26.4564 34.8 29.4841 32.3261 31.4041 31.4769C31.6995 31.3292 32.0687 31.4031 32.2903 31.6246C32.5487 31.8461 32.6226 32.1785 32.5118 32.5108C32.1057 33.84 32.3641 34.1354 32.6964 34.5415C32.7703 34.6523 32.881 34.7631 32.9918 34.9108C33.9518 36.1292 34.1734 37.3846 34.0626 38.4554C35.281 37.5323 36.0564 36.4246 36.3518 35.1323C36.8318 33.0277 36.0195 30.7015 34.9487 28.8923C34.6903 29.2985 34.358 29.6308 33.9149 29.8892C33.1395 30.3323 32.2534 30.3323 31.6257 29.9261C31.0718 29.5569 30.8133 28.9292 30.9241 28.1908C31.4041 24.8308 30.1487 22.8 28.8195 21.6185Z" fill="white"/>
</svg>
