<svg width="60" height="60" viewBox="0 0 60 60" fill="none" xmlns="http://www.w3.org/2000/svg">
<circle cx="30" cy="30" r="30" fill="#F56060"/>
<path d="M31.5375 24.6375C31.2 24.3 30.675 24.3375 30.3375 24.6375L28.4625 26.55C28.125 26.8875 28.125 27.4125 28.4625 27.7125L29.7375 29.025L28.4625 30.375C28.125 30.7125 28.1625 31.2375 28.4625 31.575C28.6125 31.725 28.8375 31.8 29.0625 31.8C29.2875 31.8 29.5125 31.725 29.6625 31.5375L31.5375 29.625C31.875 29.2875 31.875 28.7625 31.5375 28.4625L30.2625 27.15L31.5375 25.8375C31.875 25.5 31.8375 24.9375 31.5375 24.6375Z" fill="white"/>
<path d="M38.6625 27.3375C38.6625 22.5375 34.7625 18.675 30 18.675C25.2375 18.675 21.3375 22.5375 21.3375 27.3375C21.3375 30.7125 23.2875 33.675 26.1375 35.1V39.375C26.1375 40.4625 27.0375 41.325 28.0875 41.325H32.1C33.1875 41.325 34.05 40.425 34.05 39.375V34.9875C36.7875 33.525 38.6625 30.6375 38.6625 27.3375ZM32.3625 35.7V39.375C32.3625 39.525 32.25 39.6375 32.1 39.6375H28.0875C27.9375 39.6375 27.825 39.525 27.825 39.375V35.7C28.5 35.8875 29.25 36 30 36C30.75 36 31.5 35.8875 32.2125 35.7H32.3625ZM30 34.3125C26.1375 34.3125 23.025 31.1625 23.025 27.3375C23.025 23.5125 26.1375 20.3625 30 20.3625C33.8625 20.3625 36.975 23.5125 36.975 27.3375C36.975 31.1625 33.8625 34.3125 30 34.3125Z" fill="white"/>
</svg>
