<svg width="24" height="24" viewBox="0 0 24 24" fill="none" xmlns="http://www.w3.org/2000/svg">
<g clip-path="url(#clip0_558_5848)">
<path d="M15.8251 11.1375H12.8251V8.17498C12.8251 7.72498 12.4501 7.34998 11.9626 7.34998C11.5126 7.34998 11.1376 7.72498 11.1376 8.21248V11.175H8.1751C7.7251 11.175 7.3501 11.55 7.3501 12.0375C7.3501 12.4875 7.7251 12.8625 8.2126 12.8625H11.1751V15.825C11.1751 16.275 11.5501 16.65 12.0376 16.65C12.4876 16.65 12.8626 16.275 12.8626 15.7875V12.825H15.8251C16.2751 12.825 16.6501 12.45 16.6501 11.9625C16.6501 11.5125 16.2751 11.1375 15.8251 11.1375Z" fill="#D1D5DB"/>
<path d="M12 0.674988C5.73755 0.674988 0.675049 5.73749 0.675049 12C0.675049 18.2625 5.77505 23.3625 12.0375 23.3625C18.3 23.3625 23.4 18.2625 23.4 12C23.3625 5.73749 18.2626 0.674988 12 0.674988ZM12 21.675C6.67505 21.675 2.36255 17.325 2.36255 12C2.36255 6.67499 6.67505 2.36249 12 2.36249C17.325 2.36249 21.675 6.67499 21.675 12C21.675 17.325 17.325 21.675 12 21.675Z" fill="#D1D5DB"/>
</g>
<defs>
<clipPath id="clip0_558_5848">
<rect width="24" height="24" fill="white"/>
</clipPath>
</defs>
</svg>
