<svg width="50" height="50" viewBox="0 0 50 50" fill="none" xmlns="http://www.w3.org/2000/svg">
<rect width="50" height="50" rx="10" fill="#E1E8FF"/>
<path d="M25 35.125C24.5126 35.125 24.0251 34.9375 23.6501 34.6C22.7875 33.85 22 33.175 21.2875 32.575C19.15 30.7375 17.275 29.2 15.9625 27.625C14.425 25.75 13.675 23.9875 13.675 22C13.675 20.0875 14.35 18.2875 15.55 16.975C16.7875 15.625 18.5125 14.875 20.35 14.875C21.7375 14.875 23.05 15.325 24.175 16.1875C24.475 16.4125 24.7375 16.6375 25 16.9375C25.2626 16.675 25.5251 16.4125 25.8251 16.1875C26.9501 15.325 28.2251 14.875 29.6501 14.875C31.5251 14.875 33.2126 15.625 34.4501 16.975C35.6876 18.2875 36.3251 20.0875 36.3251 22C36.3251 23.9875 35.6126 25.75 34.0375 27.625C32.725 29.2 30.8501 30.775 28.7126 32.575C28.0001 33.175 27.175 33.8875 26.3126 34.6C25.975 34.9375 25.4875 35.125 25 35.125ZM20.35 16.5625C18.9625 16.5625 17.6875 17.125 16.75 18.1C15.85 19.1125 15.3625 20.5 15.3625 22C15.3625 23.5375 15.9625 25 17.2375 26.5375C18.475 28 20.275 29.5375 22.3375 31.3C23.05 31.9 23.875 32.6125 24.7375 33.3625C24.8875 33.475 25.1126 33.475 25.2626 33.3625C26.1251 32.6125 26.95 31.9375 27.6625 31.3C29.7626 29.5 31.5626 28 32.7626 26.5375C34.0376 25 34.6376 23.5375 34.6376 22C34.6376 20.5 34.1126 19.1125 33.2126 18.1375C32.2751 17.125 31.0001 16.5625 29.6501 16.5625C28.6376 16.5625 27.7001 16.9 26.8751 17.5C26.5375 17.7625 26.2375 18.0625 25.9376 18.4C25.7126 18.6625 25.375 18.85 25 18.85C24.625 18.85 24.3251 18.7 24.0625 18.4C23.7626 18.0625 23.4626 17.7625 23.125 17.5C22.3376 16.9 21.4 16.5625 20.35 16.5625Z" fill="#111928"/>
</svg>
