<svg width="24" height="22" viewBox="0 0 24 22" fill="none" xmlns="http://www.w3.org/2000/svg">
<g id="Group">
<path id="Vector" d="M15.9139 21.9125C13.8462 21.9125 12.1108 20.4125 11.7046 18.425H1.66155C1.21847 18.425 0.812317 18.05 0.812317 17.5625C0.812317 17.075 1.18155 16.7 1.66155 16.7H11.7046C12.1108 14.75 13.8462 13.25 15.9139 13.25C17.9815 13.25 19.7169 14.75 20.1231 16.7375H22.3385C22.7815 16.7375 23.1877 17.1125 23.1877 17.6C23.1877 18.0875 22.8185 18.4625 22.3385 18.4625H20.1231C19.7169 20.4125 17.9815 21.9125 15.9139 21.9125ZM15.9139 14.9375C14.4739 14.9375 13.2923 16.1375 13.2923 17.5625C13.2923 18.9875 14.4739 20.1875 15.9139 20.1875C17.3539 20.1875 18.5354 18.9875 18.5354 17.5625C18.5354 16.1375 17.3539 14.9375 15.9139 14.9375ZM9.41539 15.3125C7.3477 15.3125 5.61232 13.8125 5.20616 11.825H1.66155C1.21847 11.825 0.812317 11.45 0.812317 10.9625C0.812317 10.5125 1.18155 10.1 1.66155 10.1H5.20616C5.61232 8.1125 7.3477 6.6125 9.41539 6.6125C11.4831 6.6125 13.2185 8.1125 13.6246 10.1H22.3754C22.8185 10.1 23.2246 10.475 23.2246 10.9625C23.2246 11.4125 22.8554 11.825 22.3754 11.825H13.5877C13.2185 13.8125 11.4831 15.3125 9.41539 15.3125ZM9.41539 8.375C7.97539 8.375 6.79386 9.575 6.79386 11C6.79386 12.4625 7.97539 13.625 9.41539 13.625C10.8554 13.625 12.0369 12.425 12.0369 11C12.0369 9.5375 10.8554 8.375 9.41539 8.375ZM18.9046 8.75C16.8369 8.75 15.1015 7.25 14.6954 5.2625H1.66155C1.21847 5.2625 0.812317 4.8875 0.812317 4.4C0.812317 3.9125 1.18155 3.5375 1.66155 3.5375H14.6954C15.1015 1.55 16.8369 0.0500031 18.9046 0.0500031C21.2677 0.0500031 23.1877 2 23.1877 4.3625C23.1877 6.725 21.2677 8.75 18.9046 8.75ZM18.9046 1.775C17.4646 1.775 16.2831 2.975 16.2831 4.4C16.2831 5.825 17.4646 7.025 18.9046 7.025C20.3446 7.025 21.5262 5.825 21.5262 4.4C21.5262 2.975 20.3446 1.775 18.9046 1.775Z" fill="#111928"/>
</g>
</svg>
