<svg width="50" height="50" viewBox="0 0 50 50" fill="none" xmlns="http://www.w3.org/2000/svg">
<rect width="50" height="50" rx="10" fill="#E1E8FF"/>
<path d="M28.9139 35.9125C26.8462 35.9125 25.1108 34.4125 24.7046 32.425H14.6615C14.2185 32.425 13.8123 32.05 13.8123 31.5625C13.8123 31.075 14.1815 30.7001 14.6615 30.7001H24.7046C25.1108 28.75 26.8462 27.25 28.9139 27.25C30.9815 27.25 32.7169 28.75 33.1231 30.7375H35.3385C35.7815 30.7375 36.1877 31.1125 36.1877 31.6C36.1877 32.0875 35.8185 32.4625 35.3385 32.4625H33.1231C32.7169 34.4125 30.9815 35.9125 28.9139 35.9125ZM28.9139 28.9375C27.4739 28.9375 26.2923 30.1375 26.2923 31.5625C26.2923 32.9875 27.4739 34.1875 28.9139 34.1875C30.3539 34.1875 31.5354 32.9875 31.5354 31.5625C31.5354 30.1375 30.3539 28.9375 28.9139 28.9375ZM22.4154 29.3125C20.3477 29.3125 18.6123 27.8125 18.2062 25.825H14.6615C14.2185 25.825 13.8123 25.45 13.8123 24.9625C13.8123 24.5125 14.1815 24.1 14.6615 24.1H18.2062C18.6123 22.1125 20.3477 20.6125 22.4154 20.6125C24.4831 20.6125 26.2185 22.1125 26.6246 24.1H35.3754C35.8185 24.1 36.2246 24.475 36.2246 24.9625C36.2246 25.4125 35.8554 25.825 35.3754 25.825H26.5877C26.2185 27.8125 24.4831 29.3125 22.4154 29.3125ZM22.4154 22.375C20.9754 22.375 19.7939 23.575 19.7939 25C19.7939 26.4625 20.9754 27.625 22.4154 27.625C23.8554 27.625 25.0369 26.425 25.0369 25C25.0369 23.5375 23.8554 22.375 22.4154 22.375ZM31.9046 22.75C29.8369 22.75 28.1015 21.25 27.6954 19.2625H14.6615C14.2185 19.2625 13.8123 18.8875 13.8123 18.4C13.8123 17.9125 14.1815 17.5375 14.6615 17.5375H27.6954C28.1015 15.55 29.8369 14.05 31.9046 14.05C34.2677 14.05 36.1877 16 36.1877 18.3625C36.1877 20.725 34.2677 22.75 31.9046 22.75ZM31.9046 15.775C30.4646 15.775 29.2831 16.975 29.2831 18.4C29.2831 19.825 30.4646 21.025 31.9046 21.025C33.3446 21.025 34.5262 19.825 34.5262 18.4C34.5262 16.975 33.3446 15.775 31.9046 15.775Z" fill="#111928"/>
</svg>
