<svg width="24" height="24" viewBox="0 0 24 24" fill="none" xmlns="http://www.w3.org/2000/svg">
<path d="M21.7875 1.19999C21.6375 0.749991 21.15 0.524991 20.7 0.712491L17.9625 1.72499C17.625 1.83749 17.4 2.17499 17.4 2.51249V6.63749H4.725C3.3375 6.63749 2.175 7.76249 2.175 9.18749V13.275C2.175 14.5875 3.225 15.7125 4.5375 15.825L17.4 16.8V17.0625C17.4 17.7 16.875 18.225 16.2375 18.225H5.6625C4.2375 18.225 3.075 19.3875 3.075 20.8125C3.075 22.2375 4.2375 23.4 5.6625 23.4C7.0875 23.4 8.25 22.2375 8.25 20.8125C8.25 20.5125 8.175 20.175 8.1 19.9125H11.85C11.7375 20.2125 11.7 20.5125 11.7 20.8125C11.7 22.2375 12.8625 23.4 14.2875 23.4C15.7125 23.4 16.875 22.2375 16.875 20.8125C16.875 20.475 16.8 20.175 16.6875 19.875C18.0375 19.65 19.0875 18.4875 19.0875 17.0625V3.14999L21.3 2.36249C21.7125 2.13749 21.9375 1.64999 21.7875 1.19999ZM12.6 8.28749V14.7L8.625 14.4V8.28749H12.6ZM3.8625 13.275V9.14999C3.8625 8.66249 4.2375 8.28749 4.725 8.28749H6.9375V14.2875L4.6875 14.1375C4.2 14.1 3.8625 13.6875 3.8625 13.275ZM17.4 15.075L14.2875 14.85V8.28749H17.4V15.075ZM6.5625 20.7375C6.5625 21.225 6.15 21.6375 5.6625 21.6375C5.175 21.6375 4.7625 21.225 4.7625 20.7375C4.7625 20.25 5.175 19.8375 5.6625 19.8375C6.15 19.8375 6.5625 20.25 6.5625 20.7375ZM14.25 21.675C13.7625 21.675 13.35 21.2625 13.35 20.775C13.35 20.2875 13.7625 19.875 14.25 19.875C14.7375 19.875 15.15 20.2875 15.15 20.775C15.15 21.2625 14.775 21.675 14.25 21.675Z" fill="#3758F9"/>
</svg>
