<svg width="350" height="185" viewBox="0 0 350 185" fill="none" xmlns="http://www.w3.org/2000/svg">
<mask id="mask0_502_1072" style="mask-type:alpha" maskUnits="userSpaceOnUse" x="0" y="0" width="350" height="185">
<rect width="350" height="185" rx="10" fill="#FF5757"/>
</mask>
<g mask="url(#mask0_502_1072)">
<path fill-rule="evenodd" clip-rule="evenodd" d="M454.394 388.574C413.821 443.827 352.938 484.127 284.652 501.13C218.815 517.523 151.678 499.624 86.7766 480.111C21.177 460.389 -52.4922 443.47 -90.1969 388.434C-127.401 334.129 -102.221 263.822 -105.829 198.974C-109.72 129.032 -159 47.8762 -112.136 -5.91804C-64.7452 -60.3186 28.3414 -29.3732 101.632 -39.1708C158.779 -46.8103 212.071 -62.5044 269.479 -56.933C341.442 -49.949 425.633 -54.939 473.549 -3.07647C521.989 49.3528 509.675 129.433 506.255 199.345C502.989 266.118 494.553 333.885 454.394 388.574Z" fill="#C2C2C2"/>
<path fill-rule="evenodd" clip-rule="evenodd" d="M-13.1767 56.3074C62.2931 49.6456 145.415 41.6826 206.681 84.3867C267.927 127.077 277.655 207.334 302.013 276.003C326.759 345.767 367.694 415.222 349.419 486.791C330.58 560.573 276.378 629.034 203.948 660.064C135.979 689.182 59.944 655.618 -13.1767 642.13C-71.1121 631.443 -123.99 614.663 -176.966 589.8C-242.246 559.162 -326.092 543.975 -356.756 480.877C-387.909 416.773 -357.221 341.194 -329.656 275.602C-303.647 213.712 -261.876 159.882 -205.421 120.764C-149.042 81.6976 -82.4852 62.4255 -13.1767 56.3074Z" fill="#828085"/>
<path fill-rule="evenodd" clip-rule="evenodd" d="M448.119 -17.4774C515.843 -7.28536 551.858 61.0326 601.743 106.042C643.823 144.008 688.04 176.835 716.741 224.886C752.086 284.058 807.323 348.468 785.258 413.274C763.193 478.083 677.792 496.701 613.928 526.861C561.061 551.828 506.903 568.24 448.119 572.492C384.65 577.082 321.127 577.163 263.047 552.239C194.205 522.696 123.563 484.675 91.3389 419.382C57.3065 350.426 55.9783 266.332 87.3412 196.226C117.475 128.867 189.772 92.3992 254.869 53.8395C315.048 18.1931 378.207 -27.9987 448.119 -17.4774Z" fill="#6C6C6C"/>
</g>
</svg>
