<svg width="24" height="24" viewBox="0 0 24 24" fill="none" xmlns="http://www.w3.org/2000/svg">
<g clip-path="url(#clip0_558_5820)">
<path d="M15.825 11.1375H8.17498C7.72498 11.1375 7.34998 11.5125 7.34998 12C7.34998 12.45 7.72498 12.825 8.21248 12.825H15.8625C16.3125 12.825 16.6875 12.45 16.6875 11.9625C16.65 11.5125 16.275 11.1375 15.825 11.1375Z" fill="#D1D5DB"/>
<path d="M12 0.674988C5.73749 0.674988 0.674988 5.73749 0.674988 12C0.674988 18.2625 5.77499 23.3625 12.0375 23.3625C18.3 23.3625 23.4 18.2625 23.4 12C23.3625 5.73749 18.2625 0.674988 12 0.674988ZM12 21.675C6.67499 21.675 2.36249 17.325 2.36249 12C2.36249 6.67499 6.67499 2.36249 12 2.36249C17.325 2.36249 21.675 6.71249 21.675 12.0375C21.675 17.325 17.325 21.675 12 21.675Z" fill="#D1D5DB"/>
</g>
<defs>
<clipPath id="clip0_558_5820">
<rect width="24" height="24" fill="white"/>
</clipPath>
</defs>
</svg>
