<svg width="135" height="135" viewBox="0 0 135 135" fill="none" xmlns="http://www.w3.org/2000/svg">
<g id="Group">
<path id="Vector" d="M67 -0.00624847C29.9469 -0.00624847 -0.00622559 29.9469 -0.00622559 67C-0.00622559 104.053 29.9469 134.228 67 134.228C104.053 134.228 134.228 104.053 134.228 67C134.228 29.9469 104.053 -0.00624847 67 -0.00624847ZM67 124.244C35.4938 124.244 9.97815 98.5063 9.97815 67C9.97815 35.4938 35.4938 9.97813 67 9.97813C98.5063 9.97813 124.244 35.7156 124.244 67.2219C124.244 98.5062 98.5063 124.244 67 124.244Z" fill="#3758F9"/>
<path id="Vector_2" d="M86.0813 46.3656L59.6782 72.1031L47.6969 60.3438C45.7001 58.3469 42.5938 58.5688 40.5969 60.3438C38.6001 62.3406 38.8219 65.4469 40.5969 67.4438L54.7969 81.2C56.1282 82.5313 57.9032 83.1969 59.6782 83.1969C61.4532 83.1969 63.2282 82.5313 64.5594 81.2L93.1813 53.6875C95.1782 51.6906 95.1782 48.5844 93.1813 46.5875C91.1844 44.5906 88.0782 44.5906 86.0813 46.3656Z" fill="#3758F9"/>
</g>
</svg>
