<svg width="18" height="18" viewBox="0 0 18 18" fill="none" xmlns="http://www.w3.org/2000/svg">
<g clip-path="url(#clip0_701_1729)">
<path d="M9.00001 0.506226C4.30313 0.506226 0.506256 4.3031 0.506256 8.99998C0.506256 13.6969 4.30313 17.5219 9.00001 17.5219C13.6969 17.5219 17.5219 13.6969 17.5219 8.99998C17.5219 4.3031 13.6969 0.506226 9.00001 0.506226ZM9.00001 16.2562C5.00626 16.2562 1.77188 12.9937 1.77188 8.99998C1.77188 5.00623 5.00626 1.77185 9.00001 1.77185C12.9938 1.77185 16.2563 5.03435 16.2563 9.0281C16.2563 12.9937 12.9938 16.2562 9.00001 16.2562Z" fill="#111928"/>
<path d="M12.3469 6.69375L9.00001 9.98438L5.65314 6.69375C5.40001 6.44062 5.00626 6.44062 4.75314 6.69375C4.50001 6.94687 4.50001 7.34063 4.75314 7.59375L8.55001 11.3344C8.66251 11.4469 8.83126 11.5031 9.00001 11.5031C9.16876 11.5031 9.30939 11.4469 9.45001 11.3344L13.2469 7.59375C13.5 7.34063 13.5 6.94687 13.2469 6.69375C13.0219 6.44062 12.6 6.44062 12.3469 6.69375Z" fill="#111928"/>
</g>
<defs>
<clipPath id="clip0_701_1729">
<rect width="18" height="18" fill="white"/>
</clipPath>
</defs>
</svg>
