<svg width="18" height="18" viewBox="0 0 18 18" fill="none" xmlns="http://www.w3.org/2000/svg">
<g clip-path="url(#clip0_598_897)">
<path d="M9.00001 0.506226C4.30313 0.506226 0.506256 4.3031 0.506256 8.99998C0.506256 13.6969 4.30313 17.5219 9.00001 17.5219C13.6969 17.5219 17.5219 13.6969 17.5219 8.99998C17.5219 4.3031 13.6969 0.506226 9.00001 0.506226ZM9.00001 16.2562C5.00626 16.2562 1.77188 12.9937 1.77188 8.99998C1.77188 5.00623 5.00626 1.77185 9.00001 1.77185C12.9938 1.77185 16.2563 5.03435 16.2563 9.0281C16.2563 12.9937 12.9938 16.2562 9.00001 16.2562Z" fill="#111928"/>
<path d="M9.45001 6.69375C9.19689 6.44062 8.80314 6.44062 8.55001 6.69375L4.75314 10.4063C4.50001 10.6594 4.50001 11.0531 4.75314 11.3063C4.86564 11.4188 5.03439 11.5031 5.20314 11.5031C5.37189 11.5031 5.51251 11.4469 5.65314 11.3344L9.00001 8.01563L12.3469 11.3063C12.6 11.5594 12.9938 11.5594 13.2469 11.3063C13.5 11.0531 13.5 10.6594 13.2469 10.4063L9.45001 6.69375Z" fill="#111928"/>
</g>
<defs>
<clipPath id="clip0_598_897">
<rect width="18" height="18" fill="white"/>
</clipPath>
</defs>
</svg>
