<svg width="50" height="50" viewBox="0 0 50 50" fill="none" xmlns="http://www.w3.org/2000/svg">
<rect width="50" height="50" rx="10" fill="#2D68F8"/>
<path d="M34 24.175H17.9875L24.3625 17.6875C24.7 17.35 24.7 16.825 24.3625 16.4875C24.025 16.15 23.5 16.15 23.1625 16.4875L15.4 24.3625C15.0625 24.7 15.0625 25.225 15.4 25.5625L23.1625 33.4375C23.3125 33.5875 23.5375 33.7 23.7625 33.7C23.9875 33.7 24.175 33.625 24.3625 33.475C24.7 33.1375 24.7 32.6125 24.3625 32.275L18.025 25.8625H34C34.45 25.8625 34.825 25.4875 34.825 25.0375C34.825 24.55 34.45 24.175 34 24.175Z" fill="white"/>
</svg>
