<svg width="50" height="50" viewBox="0 0 50 50" fill="none" xmlns="http://www.w3.org/2000/svg">
<rect width="50" height="50" rx="10" fill="#E1E8FF"/>
<path d="M21.5125 29.2L19.15 31.5625V16.4125C19.15 15.9625 18.775 15.55 18.2875 15.55C17.8 15.55 17.425 15.925 17.425 16.4125V31.5625L15.0625 29.2C14.725 28.8625 14.2 28.8625 13.8625 29.2C13.525 29.5375 13.525 30.0625 13.8625 30.4L17.425 33.9625C17.65 34.1875 17.95 34.3 18.2875 34.3C18.5875 34.3 18.8875 34.1875 19.15 33.9625L22.7125 30.4C23.05 30.0625 23.05 29.5375 22.7125 29.2C22.375 28.8625 21.85 28.8625 21.5125 29.2Z" fill="#111928"/>
<path d="M26.05 17.2375H27.8875C28.3375 17.2375 28.7125 16.8625 28.7125 16.375C28.7125 15.925 28.3375 15.55 27.85 15.55H26.0125C25.5625 15.55 25.1875 15.925 25.1875 16.4125C25.1875 16.8625 25.5625 17.2375 26.05 17.2375Z" fill="#111928"/>
<path d="M26.05 22.975H30.7375C31.1875 22.975 31.5625 22.6 31.5625 22.1125C31.5625 21.625 31.1875 21.25 30.7 21.2875H26.0125C25.5625 21.2875 25.1875 21.6625 25.1875 22.15C25.1875 22.6 25.5625 22.975 26.05 22.975Z" fill="#111928"/>
<path d="M26.05 28.7125H32.65C33.1 28.7125 33.475 28.3375 33.475 27.85C33.475 27.4 33.1 27.025 32.6125 27.025H26.0125C25.5625 27.025 25.1875 27.4 25.1875 27.8875C25.1875 28.3375 25.5625 28.7125 26.05 28.7125Z" fill="#111928"/>
<path d="M35.5 32.7251H26.05C25.6 32.7251 25.225 33.1001 25.225 33.5876C25.225 34.0376 25.6 34.4126 26.0875 34.4126H35.5375C35.9875 34.4126 36.3625 34.0376 36.3625 33.5501C36.325 33.1001 35.95 32.7251 35.5 32.7251Z" fill="#111928"/>
</svg>
