<svg width="23" height="22" viewBox="0 0 23 22" fill="none" xmlns="http://www.w3.org/2000/svg">
<path d="M22.525 19.8875L16.3375 14.8625C18.8875 11.375 18.625 6.3875 15.4375 3.2375C13.75 1.55 11.5 0.612503 9.10001 0.612503C6.70001 0.612503 4.45001 1.55 2.76251 3.2375C-0.724994 6.725 -0.724994 12.425 2.76251 15.9125C4.45001 17.6 6.70001 18.5375 9.10001 18.5375C11.3875 18.5375 13.525 17.675 15.2125 16.1375L21.475 21.2C21.625 21.3125 21.8125 21.3875 22 21.3875C22.2625 21.3875 22.4875 21.275 22.6375 21.0875C22.9375 20.7125 22.9 20.1875 22.525 19.8875ZM9.10001 16.85C7.15001 16.85 5.35001 16.1 3.96251 14.7125C1.11251 11.8625 1.11251 7.25 3.96251 4.4375C5.35001 3.05 7.15001 2.3 9.10001 2.3C11.05 2.3 12.85 3.05 14.2375 4.4375C17.0875 7.2875 17.0875 11.9 14.2375 14.7125C12.8875 16.1 11.05 16.85 9.10001 16.85Z" fill="white"/>
</svg>
