<svg width="18" height="18" viewBox="0 0 18 18" fill="none" xmlns="http://www.w3.org/2000/svg">
<path d="M8.07188 13.5563L6.27188 15.3282V1.12502C6.27188 0.787524 5.99063 0.478149 5.62501 0.478149C5.25938 0.478149 4.97813 0.759399 4.97813 1.12502V15.3563L3.17813 13.5844C2.92501 13.3313 2.53126 13.3313 2.27813 13.5844C2.02501 13.8375 2.02501 14.2313 2.27813 14.4844L4.95001 17.1563C5.11876 17.325 5.34376 17.4094 5.59688 17.4094C5.85001 17.4094 6.04688 17.325 6.24376 17.1563L8.91563 14.4844C9.16876 14.2313 9.16876 13.8375 8.91563 13.5844C8.71876 13.3313 8.29688 13.3313 8.07188 13.5563Z" fill="white"/>
<path d="M14.6813 16.2562H13.5563L14.8781 14.4281C15.0188 14.2312 15.0469 13.9781 14.9344 13.7812C14.8219 13.5562 14.5969 13.4437 14.3719 13.4437H12.1781C11.8406 13.4437 11.5312 13.725 11.5312 14.0906C11.5312 14.4562 11.8125 14.7375 12.1781 14.7375H13.1344L11.8125 16.5094C11.6719 16.7062 11.6437 16.9594 11.7562 17.1562C11.8687 17.3812 12.0937 17.4937 12.3187 17.4937H14.6813C15.0188 17.4937 15.3281 17.2125 15.3281 16.8469C15.3281 16.4812 15.0188 16.2562 14.6813 16.2562Z" fill="white"/>
<path d="M15.7782 4.4156L14.0063 0.843726C13.8938 0.618726 13.6688 0.506226 13.4438 0.506226C13.2188 0.506226 12.9938 0.646851 12.8813 0.843726L11.0813 4.4156C10.9125 4.72498 11.0532 5.11873 11.3625 5.25935C11.6719 5.4281 12.0657 5.28748 12.2063 4.9781L12.375 4.61248H14.4563L14.625 4.9781C14.7375 5.2031 14.9625 5.3156 15.1875 5.3156C15.2719 5.3156 15.3844 5.28748 15.4688 5.25935C15.8344 5.11873 15.9469 4.72498 15.7782 4.4156ZM13.0219 3.34685L13.4438 2.53123L13.8657 3.34685H13.0219Z" fill="white"/>
</svg>
