<svg width="24" height="20" viewBox="0 0 24 20" fill="none" xmlns="http://www.w3.org/2000/svg">
<g id="Group">
<path id="Vector" d="M8.5125 14.2L6.15 16.5625V1.4125C6.15 0.962503 5.775 0.550003 5.2875 0.550003C4.8 0.550003 4.425 0.925003 4.425 1.4125V16.5625L2.0625 14.2C1.725 13.8625 1.2 13.8625 0.8625 14.2C0.525 14.5375 0.525 15.0625 0.8625 15.4L4.425 18.9625C4.65 19.1875 4.95 19.3 5.2875 19.3C5.5875 19.3 5.8875 19.1875 6.15 18.9625L9.7125 15.4C10.05 15.0625 10.05 14.5375 9.7125 14.2C9.375 13.8625 8.85 13.8625 8.5125 14.2Z" fill="#111928"/>
<path id="Vector_2" d="M13.05 2.2375H14.8875C15.3375 2.2375 15.7125 1.8625 15.7125 1.375C15.7125 0.925003 15.3375 0.550003 14.85 0.550003H13.0125C12.5625 0.550003 12.1875 0.925003 12.1875 1.4125C12.1875 1.8625 12.5625 2.2375 13.05 2.2375Z" fill="#111928"/>
<path id="Vector_3" d="M13.05 7.97501H17.7375C18.1875 7.97501 18.5625 7.60001 18.5625 7.11251C18.5625 6.62501 18.1875 6.25001 17.7 6.28751H13.0125C12.5625 6.28751 12.1875 6.66251 12.1875 7.15001C12.1875 7.60001 12.5625 7.97501 13.05 7.97501Z" fill="#111928"/>
<path id="Vector_4" d="M13.05 13.7125H19.65C20.1 13.7125 20.475 13.3375 20.475 12.85C20.475 12.4 20.1 12.025 19.6125 12.025H13.0125C12.5625 12.025 12.1875 12.4 12.1875 12.8875C12.1875 13.3375 12.5625 13.7125 13.05 13.7125Z" fill="#111928"/>
<path id="Vector_5" d="M22.5 17.725H13.05C12.6 17.725 12.225 18.1 12.225 18.5875C12.225 19.0375 12.6 19.4125 13.0875 19.4125H22.5375C22.9875 19.4125 23.3625 19.0375 23.3625 18.55C23.325 18.1 22.95 17.725 22.5 17.725Z" fill="#111928"/>
</g>
</svg>
