<svg width="25" height="25" viewBox="0 0 25 25" fill="none" xmlns="http://www.w3.org/2000/svg">
<path d="M19.1016 3.4375H16.0938V2.77344C16.0938 1.60156 15.1562 0.664062 13.9844 0.664062H10.9766C9.80469 0.664062 8.86719 1.60156 8.86719 2.77344V3.4375H5.85938C4.72656 3.4375 3.78906 4.375 3.78906 5.50781V6.67969C3.78906 7.53906 4.29687 8.24219 5.03906 8.55469L5.66406 22.0703C5.74219 23.3594 6.75781 24.3359 8.04688 24.3359H16.8359C18.125 24.3359 19.1797 23.3203 19.2188 22.0703L19.9219 8.51562C20.6641 8.20312 21.1719 7.46094 21.1719 6.64062V5.46875C21.1719 4.375 20.2344 3.4375 19.1016 3.4375ZM10.6641 2.77344C10.6641 2.57812 10.8203 2.42187 11.0156 2.42187H14.0234C14.2188 2.42187 14.375 2.57812 14.375 2.77344V3.4375H10.7031V2.77344H10.6641ZM5.58594 5.50781C5.58594 5.35156 5.70313 5.19531 5.89844 5.19531H19.1016C19.2578 5.19531 19.4141 5.3125 19.4141 5.50781V6.67969C19.4141 6.83594 19.2969 6.99219 19.1016 6.99219H5.89844C5.74219 6.99219 5.58594 6.875 5.58594 6.67969V5.50781ZM16.875 22.5781H8.125C7.77344 22.5781 7.5 22.3047 7.5 21.9922L6.875 8.75H18.1641L17.5391 21.9922C17.5 22.3047 17.2266 22.5781 16.875 22.5781Z" fill="#111928"/>
<path d="M12.5 12.1484C12.0312 12.1484 11.6016 12.5391 11.6016 13.0469V19.1016C11.6016 19.5703 11.9922 20 12.5 20C12.9687 20 13.3984 19.6094 13.3984 19.1016V13.0078C13.3984 12.5391 12.9687 12.1484 12.5 12.1484Z" fill="#111928"/>
<path d="M16.1328 12.8906C15.6641 12.8516 15.2344 13.2422 15.1953 13.7109L14.9609 18.2031C14.9219 18.6719 15.3125 19.1016 15.7813 19.1406H15.8203C16.2891 19.1406 16.6797 18.7891 16.6797 18.3203L16.9141 13.8281C16.9922 13.3203 16.6016 12.9297 16.1328 12.8906Z" fill="#111928"/>
<path d="M8.82814 12.8906C8.35939 12.9297 7.96876 13.3203 8.00782 13.8281L8.28126 18.3594C8.32032 18.8281 8.71095 19.1797 9.14064 19.1797H9.1797C9.64845 19.1406 10.0391 18.75 10 18.2422L9.76564 13.7109C9.72657 13.2422 9.29689 12.8516 8.82814 12.8906Z" fill="#111928"/>
</svg>
